<?xml version="1.0" encoding="UTF-8"?>
<svg version="1.1" xmlns="http://www.w3.org/2000/svg" width="3000" height="3000">
<path d="M0 0 C990 0 1980 0 3000 0 C3000 990 3000 1980 3000 3000 C2010 3000 1020 3000 0 3000 C0 2010 0 1020 0 0 Z " fill="#FEFEFE" transform="translate(0,0)"/>
<path d="M0 0 C396.66 0 793.32 0 1202 0 C1202 77.88 1202 155.76 1202 236 C1197.545 240.455 1197.545 240.455 1193 245 C1191.33256389 246.91912457 1189.66528508 248.8384433 1188.01171875 250.76953125 C1185.44193108 253.61875214 1182.72916638 256.3043306 1180 259 C1176.73616432 262.22397204 1173.53169792 265.43517926 1170.5625 268.9375 C1166.87389834 273.2786307 1162.80756243 277.21834341 1158.76025391 281.22021484 C1155.29629877 284.66020488 1152.02882616 288.18544944 1148.87109375 291.91015625 C1145.85780378 295.27573064 1142.6127901 298.40689608 1139.39990234 301.58056641 C1136.6757179 304.28428749 1134.04649806 307.00749731 1131.5625 309.9375 C1127.87389834 314.2786307 1123.80756243 318.21834341 1119.76025391 322.22021484 C1116.29629877 325.66020488 1113.02882616 329.18544944 1109.87109375 332.91015625 C1106.85780378 336.27573064 1103.6127901 339.40689608 1100.39990234 342.58056641 C1097.6757179 345.28428749 1095.04649806 348.00749731 1092.5625 350.9375 C1088.87389834 355.2786307 1084.80756243 359.21834341 1080.76025391 363.22021484 C1077.29629877 366.66020488 1074.02882616 370.18544944 1070.87109375 373.91015625 C1067.85849309 377.27496075 1064.61427958 380.40545188 1061.40209961 383.57836914 C1058.65658173 386.30324079 1056.00722524 389.05032325 1053.5 392 C1050.5073396 395.52077694 1047.2846735 398.7554753 1044 402 C1040.73617385 405.22398087 1037.53169859 408.43517847 1034.5625 411.9375 C1030.87389834 416.2786307 1026.80756243 420.21834341 1022.76025391 424.22021484 C1019.29629877 427.66020488 1016.02882616 431.18544944 1012.87109375 434.91015625 C1009.85780378 438.27573064 1006.6127901 441.40689608 1003.39990234 444.58056641 C1000.6757179 447.28428749 998.04649806 450.00749731 995.5625 452.9375 C991.87389834 457.2786307 987.80756243 461.21834341 983.76025391 465.22021484 C980.29629877 468.66020488 977.02882616 472.18544944 973.87109375 475.91015625 C970.85780378 479.27573064 967.6127901 482.40689608 964.39990234 485.58056641 C961.6757179 488.28428749 959.04649806 491.00749731 956.5625 493.9375 C952.87389834 498.2786307 948.80756243 502.21834341 944.76025391 506.22021484 C941.29629877 509.66020488 938.02882616 513.18544944 934.87109375 516.91015625 C931.85849309 520.27496075 928.61427958 523.40545188 925.40209961 526.57836914 C922.65658173 529.30324079 920.00722524 532.05032325 917.5 535 C914.5073396 538.52077694 911.2846735 541.7554753 908 545 C904.73617385 548.22398087 901.53169859 551.43517847 898.5625 554.9375 C894.87389834 559.2786307 890.80756243 563.21834341 886.76025391 567.22021484 C883.29629877 570.66020488 880.02882616 574.18544944 876.87109375 577.91015625 C873.85780378 581.27573064 870.6127901 584.40689608 867.39990234 587.58056641 C864.6757179 590.28428749 862.04649806 593.00749731 859.5625 595.9375 C855.87389834 600.2786307 851.80756243 604.21834341 847.76025391 608.22021484 C844.29629877 611.66020488 841.02882616 615.18544944 837.87109375 618.91015625 C834.85780378 622.27573064 831.6127901 625.40689608 828.39990234 628.58056641 C825.0900942 631.86551215 821.99240877 635.2504894 818.9765625 638.80859375 C816.25116289 641.83023245 813.33991346 644.64945877 810.4375 647.5 C805.80417673 652.05971586 801.69102798 656.62164494 798 662 C802.2409977 667.10461905 806.7847649 671.83849978 811.5 676.5 C814.92848436 679.89002688 818.32261 683.25194312 821.4375 686.9375 C824.74572637 690.84269956 828.36513493 694.40281168 832 698 C836.21010629 702.16646694 840.2724121 706.35285402 844.09765625 710.87890625 C846.78152487 713.87139221 849.64234089 716.67433259 852.5 719.5 C855.92844551 722.89006381 859.32260699 726.25193957 862.4375 729.9375 C865.74572658 733.84269979 869.36513741 737.40280926 873 741 C877.18844516 745.1450809 881.2267072 749.30916362 885.03125 753.8125 C888.48766973 757.65296637 892.21302595 761.23154622 895.88452148 764.86499023 C899.45698233 768.41457818 902.84604401 772.03157879 906.09765625 775.87890625 C908.78152487 778.87139221 911.64234089 781.67433259 914.5 784.5 C917.92844551 787.89006381 921.32260699 791.25193957 924.4375 794.9375 C927.74572637 798.84269956 931.36513493 802.40281168 935 806 C939.21010629 810.16646694 943.2724121 814.35285402 947.09765625 818.87890625 C949.78152487 821.87139221 952.64234089 824.67433259 955.5 827.5 C958.92844551 830.89006381 962.32260699 834.25193957 965.4375 837.9375 C968.74572637 841.84269956 972.36513493 845.40281168 976 849 C980.21010629 853.16646694 984.2724121 857.35285402 988.09765625 861.87890625 C990.78152487 864.87139221 993.64234089 867.67433259 996.5 870.5 C999.92844551 873.89006381 1003.32260699 877.25193957 1006.4375 880.9375 C1009.74572637 884.84269956 1013.36513493 888.40281168 1017 892 C1021.21010629 896.16646694 1025.2724121 900.35285402 1029.09765625 904.87890625 C1031.78152487 907.87139221 1034.64234089 910.67433259 1037.5 913.5 C1040.92844551 916.89006381 1044.32260699 920.25193957 1047.4375 923.9375 C1050.74572637 927.84269956 1054.36513493 931.40281168 1058 935 C1062.21010629 939.16646694 1066.2724121 943.35285402 1070.09765625 947.87890625 C1072.78152487 950.87139221 1075.64234089 953.67433259 1078.5 956.5 C1081.92844551 959.89006381 1085.32260699 963.25193957 1088.4375 966.9375 C1091.74572637 970.84269956 1095.36513493 974.40281168 1099 978 C1103.21010629 982.16646694 1107.2724121 986.35285402 1111.09765625 990.87890625 C1113.78152487 993.87139221 1116.64234089 996.67433259 1119.5 999.5 C1122.92844551 1002.89006381 1126.32260699 1006.25193957 1129.4375 1009.9375 C1132.74572658 1013.84269979 1136.36513741 1017.40280926 1140 1021 C1144.18844516 1025.1450809 1148.2267072 1029.30916362 1152.03125 1033.8125 C1155.48766973 1037.65296637 1159.21302595 1041.23154622 1162.88452148 1044.86499023 C1166.45698233 1048.41457818 1169.84604401 1052.03157879 1173.09765625 1055.87890625 C1176.32087332 1059.47276019 1179.79732453 1062.81655565 1183.22924805 1066.2097168 C1186.22103706 1069.18069638 1189.12392158 1072.17578211 1191.875 1075.375 C1195.06933838 1079.08043252 1198.5406628 1082.5406628 1202 1086 C1202 1162.89 1202 1239.78 1202 1319 C607.01 1319.495 607.01 1319.495 0 1320 C0 884.4 0 448.8 0 0 Z " fill="#121212" transform="translate(899,840)"/>
<path d="M0 0 C1.23887611 0.00023397 1.23887611 0.00023397 2.50278002 0.00047267 C3.4539495 -0.00177462 4.40511898 -0.00402192 5.38511178 -0.00633731 C6.44456144 -0.0037103 7.50401111 -0.00108328 8.59556532 0.00162334 C10.27385115 -0.00010743 10.27385115 -0.00010743 11.98604175 -0.00187316 C15.78609319 -0.00454855 19.58610339 -0.00001013 23.38615274 0.00441665 C26.11763417 0.00453715 28.84911436 0.00314898 31.58059543 0.00182748 C37.54558277 -0.00025214 43.51056017 0.0014075 49.47554636 0.00546569 C58.34535938 0.01148344 67.2151661 0.01180311 76.0849808 0.0109237 C91.00307214 0.00960759 105.92115907 0.01295958 120.83924913 0.01894111 C135.61722761 0.02485131 150.39520426 0.02870567 165.17318391 0.02979392 C166.54972316 0.02989703 166.54972316 0.02989703 167.95407127 0.03000222 C172.61427205 0.03034054 177.27447282 0.03064193 181.9346736 0.0309291 C214.97184087 0.0330314 248.00900574 0.039774 281.04617166 0.04923171 C313.14805955 0.05841109 345.24994678 0.06549718 377.35183572 0.06973952 C378.83523596 0.06993681 378.83523596 0.06993681 380.34860387 0.07013809 C390.27957499 0.07145657 400.21054612 0.07273239 410.14151726 0.07397695 C430.37336153 0.07651339 450.60520575 0.07933464 470.83704996 0.08232803 C471.76734633 0.08246532 472.69764271 0.08260261 473.65612989 0.08274406 C535.81536031 0.09194996 597.97458939 0.10779576 660.13381815 0.12467116 C658.29522489 4.09408194 655.70888219 6.82480463 652.62860441 9.87318725 C651.77228318 10.73252061 651.77228318 10.73252061 650.89866253 11.60921425 C648.9733769 13.53881088 647.04100482 15.46115215 645.10862589 17.38364333 C643.71727729 18.77514791 642.32636954 20.16709339 640.93586653 21.55944294 C637.10465006 25.39319814 633.26721239 29.22067354 629.4287697 33.0471918 C625.29345 37.17184266 621.16389947 41.30226215 617.03367471 45.43201369 C609.87234449 52.59097877 602.70741116 59.74632135 595.54009294 66.89929122 C585.1691612 77.24955995 574.80420506 87.60579952 564.44082941 97.96363339 C547.61710154 114.7782679 530.78911906 131.58863825 513.95828104 148.39615554 C512.94023992 149.41278909 511.92219889 150.42942273 510.90415796 151.44605646 C510.399754 151.94976281 509.89535004 152.45346917 509.37566112 152.97243935 C506.82395457 155.52061727 504.27225021 158.06879737 501.7205491 160.61698074 C501.21459689 161.12223448 500.70864468 161.62748823 500.18736059 162.1480527 C488.44431027 173.87493447 476.70253153 185.60308903 464.96121072 197.33170241 C464.45846432 197.8339027 463.95571792 198.33610299 463.43773678 198.85352147 C451.9560706 210.32273786 440.47500209 221.79255209 428.99511098 233.26354522 C428.51236515 233.74591566 428.02961931 234.22828611 427.53224481 234.72527384 C423.1891283 239.06502353 418.84603595 243.4047974 414.50307037 247.74469814 C403.21256288 259.02723448 391.92013609 270.3078432 380.62426742 281.58501241 C373.53590872 288.66180123 366.44924593 295.74028518 359.36391196 302.82010237 C355.27531879 306.90536451 351.18588168 310.98977287 347.09422922 315.07197112 C343.34715369 318.81040422 339.60239788 322.55114485 335.85945227 326.29371271 C334.50631021 327.64589049 333.15231517 328.99721533 331.79737369 330.34759 C322.95151938 339.15621591 322.95151938 339.15621591 314.60100561 348.43057007 C312.14202523 351.2698537 309.4871794 353.90592581 306.82523965 356.55350417 C305.93422088 357.44580458 305.93422088 357.44580458 305.02520173 358.35613126 C303.05929163 360.32367189 301.08985976 362.28764691 299.12039041 364.25162429 C297.70044177 365.67129051 296.28071399 367.09117765 294.86118936 368.51126784 C291.02511867 372.34762436 287.18598198 376.18089912 283.34627127 380.01361198 C279.32728132 384.02633254 275.31114047 388.04190261 271.29469156 392.05716628 C263.69666323 399.65209185 256.09609032 407.24446561 248.49459117 414.83591718 C239.83723203 423.4820824 231.18272671 432.1311018 222.52845537 440.78035754 C204.73340798 458.56496444 186.93479456 476.34599889 169.13381815 494.12467116 C169.67067285 493.96851112 170.20752755 493.81235109 170.76065057 493.65145892 C213.38943791 481.50580276 268.12763581 474.60218221 308.8396331 496.58575076 C341.83297092 515.91990946 369.27752626 544.81348726 396.0752244 571.74967116 C397.03883081 572.7168036 398.00245257 573.68392075 398.96608966 574.65102262 C422.79191633 598.58097587 445.9882827 623.08696739 468.94323031 647.85048825 C483.83806084 663.91873304 498.89658561 679.81391991 514.1233201 695.56803054 C514.62822058 696.09053552 515.13312107 696.6130405 515.65332157 697.15137896 C520.72652722 702.40115215 525.80270294 707.64804531 530.88096777 712.89292447 C541.21613035 723.56745379 551.52981798 734.262631 561.83106851 744.96988601 C562.30418091 745.46160563 562.77729331 745.95332526 563.26474245 746.45994547 C584.41143068 768.44163264 605.34087737 790.62353684 626.17898416 812.89810866 C626.96209958 813.73469481 627.745215 814.57128095 628.5520612 815.43321818 C632.96470989 820.14736995 637.37393142 824.86467683 641.77694546 829.58782953 C643.09317256 830.9995995 644.41005355 832.41076015 645.72762233 833.82127804 C647.50448588 835.72456733 649.27802422 837.63088982 651.05042219 839.53833694 C651.57278199 840.09694498 652.09514179 840.65555302 652.63333067 841.23108858 C656.13381815 845.00986301 656.13381815 845.00986301 656.13381815 846.12467116 C438.66381815 846.12467116 221.19381815 846.12467116 -2.86618185 846.12467116 C-2.9065605 633.86312083 -2.9065605 633.86312083 -2.91434682 552.69482285 C-2.91638814 531.46873417 -2.91847612 510.2426455 -2.92070785 489.01655684 C-2.92097769 486.44892692 -2.92124606 483.881297 -2.92151294 481.31366709 C-2.92578383 440.34185365 -2.93329062 399.37004159 -2.94247907 358.39822898 C-2.95190133 316.30767985 -2.95806489 274.21713149 -2.96009684 232.12658132 C-2.96038502 226.18883561 -2.96071066 220.2510899 -2.9610591 214.31334418 C-2.96112652 213.14464945 -2.96119394 211.97595472 -2.96126341 210.77184499 C-2.96244757 191.91874482 -2.9670922 173.06564699 -2.97301389 154.21254777 C-2.97888627 135.28326435 -2.98115358 116.35398326 -2.97968323 97.42469896 C-2.97891958 86.16267788 -2.98097766 74.90066531 -2.9869794 63.63864576 C-2.9907092 56.13042305 -2.99085979 48.62220597 -2.98801367 41.11398288 C-2.98649343 36.8264431 -2.98661104 32.53891951 -2.99106504 28.25138141 C-2.99507733 24.35977903 -2.99458547 20.46820566 -2.99032183 16.57660379 C-2.98960082 15.16898018 -2.99059776 13.76135452 -2.9934171 12.35373355 C-2.99697644 10.45817023 -2.99389081 8.5625978 -2.99038035 6.66703439 C-2.99053633 5.61276135 -2.99069231 4.55848831 -2.99085302 3.47226761 C-2.8164473 0.1881541 -2.8164473 0.1881541 0 0 Z " fill="#FEFEFE" transform="translate(1137.8661818541586,1075.8753288351)"/>
</svg>
